<svg width="120" height="120" viewBox="0 0 120 120" fill="none" xmlns="http://www.w3.org/2000/svg">
<path d="M21.376 89C20.592 89 20.284 88.636 20.452 87.908L28.432 54.392C28.712 53.16 28.74 52.208 28.516 51.536C28.348 50.808 27.844 50.444 27.004 50.444C25.996 50.444 24.876 51.2 23.644 52.712C22.468 54.168 21.124 56.968 19.612 61.112C19.388 61.84 18.996 62.204 18.436 62.204C17.596 62.204 17.372 61.7 17.764 60.692C18.996 56.828 20.284 53.804 21.628 51.62C23.028 49.436 24.428 47.896 25.828 47C27.228 46.104 28.516 45.656 29.692 45.656C31.54 45.656 32.856 46.356 33.64 47.756C34.424 49.1 34.452 51.34 33.724 54.476L32.8 58.424C32.744 58.816 32.828 59.04 33.052 59.096C33.276 59.152 33.472 59.012 33.64 58.676C35.768 53.804 37.7 50.416 39.436 48.512C41.172 46.608 43.16 45.656 45.4 45.656C46.912 45.656 48.032 46.076 48.76 46.916C49.544 47.7 49.936 48.792 49.936 50.192C49.936 51.592 49.6 52.712 48.928 53.552C48.256 54.392 47.388 54.812 46.324 54.812C45.428 54.812 44.784 54.588 44.392 54.14C44 53.692 43.692 53.188 43.468 52.628C43.3 52.012 43.104 51.48 42.88 51.032C42.656 50.584 42.292 50.36 41.788 50.36C40.948 50.36 39.856 51.424 38.512 53.552C37.168 55.68 35.712 58.564 34.144 62.204C32.632 65.788 31.148 69.82 29.692 74.3C28.292 78.78 27.06 83.372 25.996 88.076C25.828 88.692 25.436 89 24.82 89H21.376ZM56.6698 89.756C54.8218 89.756 52.8618 89.476 50.7898 88.916C48.7738 88.356 47.2338 87.656 46.1698 86.816C45.7778 86.48 45.6098 85.976 45.6658 85.304L47.5138 74.3C47.6258 73.572 47.9618 73.208 48.5218 73.208C49.1378 73.208 49.4458 73.6 49.4458 74.384L49.6138 78.416C49.7258 81.608 50.4818 83.96 51.8818 85.472C53.3378 86.928 55.1018 87.656 57.1738 87.656C58.9658 87.656 60.5058 87.096 61.7938 85.976C63.0818 84.8 63.7258 83.092 63.7258 80.852C63.7258 79.564 63.5298 78.388 63.1378 77.324C62.7458 76.204 62.1298 75.028 61.2898 73.796C60.4498 72.508 59.3018 70.968 57.8458 69.176C55.9418 66.712 54.5138 64.612 53.5618 62.876C52.6658 61.084 52.2178 59.236 52.2178 57.332C52.2178 53.804 53.3098 50.976 55.4938 48.848C57.7338 46.72 60.5618 45.656 63.9778 45.656C65.4898 45.656 66.9458 45.88 68.3458 46.328C69.8018 46.776 71.0058 47.448 71.9578 48.344C72.4618 48.736 72.6298 49.24 72.4618 49.856L70.1098 61.112C69.9418 61.84 69.6058 62.204 69.1018 62.204C68.5978 62.204 68.2898 61.812 68.1778 61.028L67.9258 56.996C67.7018 53.636 67.2538 51.228 66.5818 49.772C65.9658 48.316 64.6498 47.588 62.6338 47.588C60.8418 47.588 59.3858 48.204 58.2658 49.436C57.1458 50.668 56.5858 52.152 56.5858 53.888C56.5858 55.736 57.0898 57.444 58.0978 59.012C59.1058 60.524 60.4778 62.456 62.2138 64.808C64.5098 67.832 66.0498 70.24 66.8338 72.032C67.6738 73.824 68.0938 75.644 68.0938 77.492C68.0938 79.844 67.5618 81.944 66.4978 83.792C65.4898 85.64 64.1178 87.096 62.3818 88.16C60.6458 89.224 58.7418 89.756 56.6698 89.756ZM67.4014 98.156C66.8414 98.156 66.6174 97.876 66.7294 97.316L66.9814 96.14C67.0934 95.58 67.4574 95.3 68.0734 95.3H95.0374C95.5414 95.3 95.7374 95.58 95.6254 96.14L95.3734 97.316C95.2614 97.876 94.9254 98.156 94.3654 98.156H67.4014Z" fill="white"/>
</svg>
